<?xml version="1.0" encoding="UTF-8" standalone="no"?>
<svg
   version="1.0"
   width="700.000000pt"
   height="700.000000pt"
   viewBox="0 0 700.000000 700.000000"
   preserveAspectRatio="xMidYMid meet"
   id="svg9"
   sodipodi:docname="trek - kopie.svg"
   inkscape:version="1.3.2 (091e20e, 2023-11-25, custom)"
   xmlns:inkscape="http://www.inkscape.org/namespaces/inkscape"
   xmlns:sodipodi="http://sodipodi.sourceforge.net/DTD/sodipodi-0.dtd"
   xmlns:xlink="http://www.w3.org/1999/xlink"
   xmlns="http://www.w3.org/2000/svg"
   xmlns:svg="http://www.w3.org/2000/svg">
  <defs
     id="defs9">
    <linearGradient
       id="linearGradient54"
       inkscape:collect="always">
      <stop
         style="stop-color:#666666;stop-opacity:1;"
         offset="0"
         id="stop54" />
      <stop
         style="stop-color:#b2b2b2;stop-opacity:1;"
         offset="1"
         id="stop55" />
    </linearGradient>
    <linearGradient
       id="linearGradient52"
       inkscape:collect="always">
      <stop
         style="stop-color:#666666;stop-opacity:1;"
         offset="0"
         id="stop52" />
      <stop
         style="stop-color:#b2b2b2;stop-opacity:1;"
         offset="1"
         id="stop53" />
    </linearGradient>
    <linearGradient
       id="linearGradient50"
       inkscape:collect="always">
      <stop
         style="stop-color:#b2b2b2;stop-opacity:1;"
         offset="0"
         id="stop50" />
      <stop
         style="stop-color:#666666;stop-opacity:1;"
         offset="1"
         id="stop51" />
    </linearGradient>
    <linearGradient
       id="swatch43"
       inkscape:swatch="solid">
      <stop
         style="stop-color:#000000;stop-opacity:1;"
         offset="0"
         id="stop43" />
    </linearGradient>
    <linearGradient
       id="linearGradient31"
       inkscape:collect="always">
      <stop
         style="stop-color:#808080;stop-opacity:1;"
         offset="0"
         id="stop32" />
      <stop
         style="stop-color:#000000;stop-opacity:1;"
         offset="1"
         id="stop33" />
    </linearGradient>
    <linearGradient
       id="linearGradient29"
       inkscape:collect="always">
      <stop
         style="stop-color:#808080;stop-opacity:1;"
         offset="0"
         id="stop30" />
      <stop
         style="stop-color:#000000;stop-opacity:1;"
         offset="1"
         id="stop31" />
    </linearGradient>
    <linearGradient
       id="linearGradient26">
      <stop
         style="stop-color:#0000ff;stop-opacity:1;"
         offset="0"
         id="stop28" />
      <stop
         style="stop-color:#00beff;stop-opacity:1;"
         offset="1"
         id="stop29" />
    </linearGradient>
    <linearGradient
       id="linearGradient26-1">
      <stop
         style="stop-color:#0000ff;stop-opacity:1;"
         offset="0"
         id="stop26" />
      <stop
         style="stop-color:#00ffff;stop-opacity:1;"
         offset="1"
         id="stop27" />
    </linearGradient>
    <linearGradient
       inkscape:collect="always"
       xlink:href="#linearGradient26"
       id="linearGradient27"
       x1="3441.8813"
       y1="6936.2334"
       x2="3459.7083"
       y2="4864.3701"
       gradientUnits="userSpaceOnUse"
       spreadMethod="pad" />
    <radialGradient
       inkscape:collect="always"
       xlink:href="#linearGradient29"
       id="radialGradient31"
       cx="1593.1021"
       cy="2807.5603"
       fx="1593.1021"
       fy="2807.5603"
       r="926.89793"
       gradientTransform="matrix(1,0,0,0.99383894,0,17.297539)"
       gradientUnits="userSpaceOnUse" />
    <radialGradient
       inkscape:collect="always"
       xlink:href="#linearGradient31"
       id="radialGradient33"
       cx="5465"
       cy="2809.1289"
       fx="5465"
       fy="2809.1289"
       r="919"
       gradientTransform="matrix(1,0,0,1.0071199,0,-20.000643)"
       gradientUnits="userSpaceOnUse" />
    <linearGradient
       inkscape:collect="always"
       xlink:href="#linearGradient50"
       id="linearGradient51"
       x1="4161.3643"
       y1="4805.8164"
       x2="5470.8687"
       y2="2810.6885"
       gradientUnits="userSpaceOnUse" />
    <linearGradient
       inkscape:collect="always"
       xlink:href="#linearGradient52"
       id="linearGradient53"
       x1="2470.1572"
       y1="3514.9438"
       x2="3619.7927"
       y2="2977.7944"
       gradientUnits="userSpaceOnUse" />
    <linearGradient
       inkscape:collect="always"
       xlink:href="#linearGradient54"
       id="linearGradient55"
       x1="935.14984"
       y1="3780.3059"
       x2="418.74542"
       y2="3328.418"
       gradientUnits="userSpaceOnUse" />
    <filter
       style="color-interpolation-filters:sRGB;"
       inkscape:label="Drop Shadow"
       id="filter85"
       x="-0.0060140327"
       y="-0.0089078027"
       width="1.0203809"
       height="1.0141649">
      <feFlood
         result="flood"
         in="SourceGraphic"
         flood-opacity="0.498039"
         flood-color="rgb(0,0,0)"
         id="feFlood84" />
      <feGaussianBlur
         result="blur"
         in="SourceGraphic"
         stdDeviation="15.000000"
         id="feGaussianBlur84" />
      <feOffset
         result="offset"
         in="blur"
         dx="50.000000"
         dy="-25.000000"
         id="feOffset84" />
      <feComposite
         result="comp1"
         operator="in"
         in="flood"
         in2="offset"
         id="feComposite84" />
      <feComposite
         result="comp2"
         operator="over"
         in="SourceGraphic"
         in2="comp1"
         id="feComposite85" />
    </filter>
  </defs>
  <sodipodi:namedview
     id="namedview9"
     pagecolor="#ffffff"
     bordercolor="#000000"
     borderopacity="0.25"
     inkscape:showpageshadow="2"
     inkscape:pageopacity="0.0"
     inkscape:pagecheckerboard="0"
     inkscape:deskcolor="#d1d1d1"
     inkscape:document-units="pt"
     inkscape:zoom="0.87964286"
     inkscape:cx="469.50873"
     inkscape:cy="457.57207"
     inkscape:window-width="1920"
     inkscape:window-height="1017"
     inkscape:window-x="-8"
     inkscape:window-y="-8"
     inkscape:window-maximized="1"
     inkscape:current-layer="svg9" />
  <metadata
     id="metadata1">
Created by potrace 1.16, written by Peter Selinger 2001-2019
</metadata>
  <g
     transform="translate(0.000000,700.000000) scale(0.100000,-0.100000)"
     fill="#000000"
     stroke="none"
     id="g9"
     style="filter:url(#filter85)">
    <path
       d="m 3880,4790 v -130 l 191,-2 192,-3 52,-87 c 105,-174 244,-417 355,-618 62,-113 138,-250 170,-305 32,-55 111,-194 175,-310 65,-115 142,-253 173,-305 30,-52 54,-106 54,-120 -1,-14 -2,-52 -3,-85 -6,-172 175,-284 331,-205 73,37 113,106 114,195 1,71 -30,133 -93,187 -41,34 -55,58 -341,568 -214,382 -434,773 -608,1078 l -155,272 h -304 -303 z"
       id="path3"
       style="display:inline;fill:url(#linearGradient51);fill-opacity:1" />
    <path
       d="m 3354,4259 c -151,-139 -210,-187 -275,-219 l -58,-30 h -359 -359 l -182,115 -183,115 H 1370 801 l -110,-152 -110,-153 587,-5 587,-5 55,-29 c 30,-15 114,-71 187,-122 l 132,-94 964,-2 965,-3 -59,-160 c -97,-263 -180,-477 -210,-535 -33,-67 -68,-102 -134,-132 l -50,-23 -820,-3 c -451,-2 -835,0 -853,3 -24,4 -60,31 -122,89 -103,96 -141,117 -213,117 -96,0 -165,-43 -204,-129 -21,-45 -25,-64 -20,-113 6,-67 39,-132 89,-175 47,-39 146,-83 214,-94 86,-14 1968,-13 2036,1 132,27 272,129 350,253 27,45 114,264 343,866 51,135 100,270 109,300 l 16,54 -69,126 c -38,69 -82,148 -98,175 l -29,50 -441,3 -441,2 z"
       id="path4"
       style="display:inline;fill:#ff0000;fill-opacity:1" />
    <path
       d="m 635,3813 c -55,-2 -103,-7 -107,-11 -14,-14 -87,-294 -123,-470 l -7,-33 103,3 102,3 194,250 c 106,138 193,253 193,258 0,7 -139,7 -355,0 z"
       id="path5"
       style="display:inline;fill:url(#linearGradient55);fill-opacity:1" />
    <path
       d="m 5358,3731 c -31,-3 -58,-8 -61,-11 -5,-5 89,-180 152,-284 l 36,-60 70,-13 c 40,-7 106,-30 154,-54 345,-170 422,-620 151,-889 -177,-176 -441,-221 -650,-109 -200,106 -310,287 -310,507 1,116 10,161 56,268 l 35,82 -85,152 c -47,84 -87,158 -89,164 -12,32 -126,-119 -187,-245 -70,-147 -84,-218 -84,-419 1,-161 3,-182 28,-265 109,-360 404,-609 789,-665 140,-21 343,11 483,75 250,114 442,341 511,604 22,80 26,120 27,241 0,124 -3,157 -23,230 -95,342 -336,582 -666,665 -98,25 -248,36 -337,26 z"
       id="path6"
       style="display:inline;fill:url(#radialGradient33)" />
    <path
       d="m 1455,3723 c -173,-36 -277,-76 -384,-147 -475,-316 -544,-999 -143,-1413 130,-133 262,-209 452,-259 89,-24 306,-23 415,0 263,58 482,221 615,459 l 32,57 h -204 -204 l -54,-41 c -120,-90 -243,-131 -390,-128 -110,2 -168,17 -265,67 -76,40 -175,131 -218,199 -41,64 -76,181 -81,266 -15,244 149,476 389,553 143,46 316,31 450,-39 85,-44 211,-173 253,-259 l 33,-68 h 185 c 101,0 184,4 184,9 0,26 -47,156 -80,223 -119,238 -304,397 -565,482 -44,14 -109,30 -145,36 -63,10 -235,12 -275,3 z"
       id="path7"
       style="display:inline;fill:url(#radialGradient31);fill-opacity:1" />
    <path
       d="m 2617,3269 c 109,-144 205,-270 213,-280 15,-18 32,-19 409,-17 l 395,3 38,95 c 21,52 61,156 89,230 28,74 60,156 70,183 l 19,47 h -716 -715 z"
       id="path8"
       style="display:inline;fill:url(#linearGradient53);fill-opacity:1"
       inkscape:label="path8" />
    <g
       id="g26"
       style="fill:url(#linearGradient27)">
      <path
         d="M 3278,6920 C 2761,6882 2181,6666 1771,6357 1159,5896 739,5227 620,4521 c -12,-68 -19,-125 -17,-128 3,-2 17,7 33,20 88,71 163,91 323,86 l 114,-4 19,95 c 43,207 169,522 286,710 131,212 339,453 521,605 595,495 1321,677 2049,514 388,-88 712,-255 1046,-540 534,-456 829,-1071 853,-1776 l 6,-181 79,-36 c 92,-41 200,-109 261,-164 80,-72 73,-78 87,75 12,136 14,400 4,498 -22,210 -71,443 -129,613 -250,740 -791,1365 -1485,1712 -260,131 -601,243 -830,274 -35,5 -108,14 -165,21 -79,10 -292,12 -397,5 z"
         id="path1"
         style="display:inline;fill:url(#linearGradient27);fill-opacity:1" />
      <path
         d="m 3188,6235 c -354,-49 -647,-153 -908,-325 -476,-314 -808,-758 -940,-1261 -46,-174 -77,-154 253,-151 l 283,3 29,82 c 82,233 207,430 380,602 454,453 1061,603 1653,409 437,-143 839,-519 992,-926 20,-53 26,-60 81,-90 130,-69 219,-224 219,-384 0,-58 -12,-141 -24,-174 -5,-13 21,-15 204,-15 h 210 v 93 c 0,468 -186,962 -508,1351 -122,147 -320,325 -477,429 -126,83 -404,217 -555,266 -294,96 -613,129 -892,91 z"
         id="path2"
         style="display:inline;fill:url(#linearGradient27);fill-opacity:1" />
      <path
         d="m 4355,2174 c -193,-94 -449,-166 -697,-194 -133,-16 -435,-8 -568,15 -166,28 -385,92 -540,159 -11,4 -26,-12 -55,-57 -61,-96 -178,-211 -285,-282 -52,-35 -107,-69 -121,-75 -26,-12 -25,-14 130,-143 242,-202 314,-268 480,-436 224,-227 377,-414 494,-602 65,-105 147,-260 147,-278 0,-9 -109,-14 -510,-26 -526,-16 -860,-48 -860,-84 0,-22 254,-53 535,-66 72,-3 157,-8 190,-11 193,-15 761,-23 1126,-14 705,17 1155,58 1112,101 -27,27 -509,63 -1057,80 -187,5 -341,11 -343,13 -7,7 53,129 120,241 202,339 585,753 1042,1125 213,174 198,150 124,196 -120,73 -262,226 -320,347 -13,26 -25,47 -28,46 -4,0 -55,-25 -116,-55 z"
         id="path9"
         style="display:inline;fill:url(#linearGradient27);fill-opacity:1" />
    </g>
  </g>
</svg>
